<?xml version="1.0" encoding="UTF-8"?>
<svg width="32" height="32" viewBox="0 0 32 32" fill="none" xmlns="http://www.w3.org/2000/svg">
    <!-- Cloud -->
    <path d="M24 20C26.2091 20 28 18.2091 28 16C28 13.7909 26.2091 12 24 12C24 8.68629 21.3137 6 18 6C15.6131 6 13.5559 7.40685 12.5 9.5C12.5 9.5 12 9.5 12 9.5C9.23858 9.5 7 11.7386 7 14.5C7 14.5 7 15 7 15C4.79086 15 3 16.7909 3 19C3 21.2091 4.79086 23 7 23H24Z" fill="#4A90E2"/>
    
    <!-- Raindrops -->
    <path d="M12 24L10 28" stroke="#4A90E2" stroke-width="2" stroke-linecap="round"/>
    <path d="M16 24L14 28" stroke="#4A90E2" stroke-width="2" stroke-linecap="round"/>
    <path d="M20 24L18 28" stroke="#4A90E2" stroke-width="2" stroke-linecap="round"/>
</svg> 